# xmcd CD database file
#
# Track frame offsets:
#	150
#	9457
#	22527
#	32215
#	41405
#	52575
#	63197
#	74945
#	86235
#	95697
#	108565
#	119835
#	130410
#	142835
#	155862
#
# Disc length: 2218 seconds
#
# Revision: 0
# Processed by: cddbd v1.4PL0 Copyright (c) Steve Scherf et al.
# Submitted via: CDex 1.40Beta8
#
DISCID=d008a80f
DTITLE=Faron Young - Alone With You
DYEAR=1900
DGENRE=Country
TTITLE0=Faron Young - Hello Walls
TTITLE1=Faron Young - Four In The Morning
TTITLE2=Faron Young - Alone With You
TTITLE3=Faron Young - Heartache For Keepsake
TTITLE4=Faron Young - Live Fast Love Hard Die Young
TTITLE5=Faron Young - Face To The Wall
TTITLE6=Faron Young - Unmitigated Gall
TTITLE7=Faron Young - Goin Steady
TTITLE8=Faron Young - Some Of These Memories
TTITLE9=Faron Young - Three Days
TTITLE10=Faron Young - Cryin Time
TTITLE11=Faron Young - I Could Never Be Ashamed Of You
TTITLE12=Faron Young - Country Girl
TTITLE13=Faron Young - Apartment No 9
TTITLE14=Faron Young - Memphis Tennessee
EXTD=ID3G: 2
EXTT0=
EXTT1=
EXTT2=
EXTT3=
EXTT4=
EXTT5=
EXTT6=
EXTT7=
EXTT8=
EXTT9=
EXTT10=
EXTT11=
EXTT12=
EXTT13=
EXTT14=
PLAYORDER=
